<svg width="78" height="78" viewBox="0 0 78 78" fill="none" xmlns="http://www.w3.org/2000/svg">
<path d="M67.3479 27.6775C66.4006 28.5682 65.33 29.3306 64.1613 29.9294V32.7097H63.5322C64.5739 32.7097 65.4193 33.5552 65.4193 34.5968C65.4193 35.6385 64.5739 36.4839 63.5322 36.4839C64.5739 36.4839 65.4193 37.3294 65.4193 38.371C65.4193 39.4127 64.5739 40.2581 63.5322 40.2581H52.2096C51.168 40.2581 50.3225 39.4127 50.3225 38.371C50.3225 37.3294 51.168 36.4839 52.2096 36.4839C51.168 36.4839 50.3225 35.6385 50.3225 34.5968C50.3225 33.5552 51.168 32.7097 52.2096 32.7097H51.5806V29.9294C50.4119 29.3306 49.3413 28.5682 48.3939 27.6775H3.77417V38.8516L14.9974 49.4143L10.0645 44.7721V33.9678H40.258V54.0968H19.9717L40.0215 72.9678H74.2258C76.3066 72.9678 78 71.2745 78 69.1936V27.6775H67.3479Z" fill="#00C695"/>
<path d="M10.0645 25.1613C10.7593 25.1613 11.3225 24.598 11.3225 23.9032C11.3225 23.2084 10.7593 22.6451 10.0645 22.6451C9.36965 22.6451 8.8064 23.2084 8.8064 23.9032C8.8064 24.598 9.36965 25.1613 10.0645 25.1613Z" fill="#333333"/>
<path d="M15.0967 25.1613C15.7915 25.1613 16.3548 24.598 16.3548 23.9032C16.3548 23.2084 15.7915 22.6451 15.0967 22.6451C14.4019 22.6451 13.8386 23.2084 13.8386 23.9032C13.8386 24.598 14.4019 25.1613 15.0967 25.1613Z" fill="#333333"/>
<path d="M20.1289 25.1613C20.8237 25.1613 21.387 24.598 21.387 23.9032C21.387 23.2084 20.8237 22.6451 20.1289 22.6451C19.4341 22.6451 18.8708 23.2084 18.8708 23.9032C18.8708 24.598 19.4341 25.1613 20.1289 25.1613Z" fill="#333333"/>
<path d="M23.1446 55.3549H41.5161V32.7097H8.80645V41.8609L3.95284 37.2928C2.72874 36.1405 1.68832 36.4097 1.29832 36.5757C0.907065 36.7431 0 37.3167 0 39V74.2258C0 76.3067 1.69335 78 3.77419 78H41.5161C43.1629 78 43.7316 77.1861 43.9241 76.6992C44.1166 76.2136 44.2625 75.2298 43.0623 74.1013L23.1446 55.3549ZM11.3226 35.2258H39V52.8388H20.4712L11.3226 44.2286V35.2258ZM3.77419 75.4839C3.07974 75.4839 2.51613 74.9203 2.51613 74.2258V72.9678H5.03226V70.4517H2.51613V67.9355H5.03226V65.4194H2.51613V62.9033H5.03226V60.3871H2.51613V57.871H5.03226V55.3549H2.51613V52.8388H5.03226V50.3226H2.51613V47.8065H5.03226V45.2904H2.51613V39.3963L40.8607 75.4839H3.77419Z" fill="#333333"/>
<path d="M8.8064 53.9534V69.1936H24.9989L8.8064 53.9534ZM11.3225 59.7769L18.6545 66.6774H11.3225V59.7769Z" fill="#333333"/>
<path d="M78 7.54839V0H70.4516V2.51613H45.2903V0H37.7419V7.54839H45.2903V5.03226H49.5438C45.4689 7.73836 42.7742 12.3643 42.7742 17.6129H7.54836C5.46752 17.6129 3.77417 19.3063 3.77417 21.3871V30.1936H5.03223H49.6017C49.8432 30.3521 50.0697 30.5295 50.3225 30.6754V32.097C49.5627 32.6719 49.0645 33.574 49.0645 34.598C49.0645 35.3088 49.3098 35.958 49.7086 36.4851C49.3098 37.011 49.0645 37.6602 49.0645 38.371C49.0645 40.1058 50.4748 41.5161 52.2096 41.5161H63.5322C65.2671 41.5161 66.6774 40.1058 66.6774 38.371C66.6774 37.6602 66.4321 37.011 66.0333 36.4839C66.4321 35.9567 66.6774 35.3076 66.6774 34.5968C66.6774 33.5727 66.1792 32.6707 65.4193 32.0957V30.6741C65.6722 30.5282 65.8986 30.3508 66.1402 30.1923H76.7419H78V21.3858C78 19.305 76.3066 17.6116 74.2258 17.6116H72.9677C72.9677 12.363 70.2729 7.7371 66.1981 5.031H70.4516V7.54713H78V7.54839ZM40.258 5.03226V2.51613H42.7742V5.03226H40.258ZM6.2903 21.3871C6.2903 20.6926 6.85391 20.129 7.54836 20.129H43.0082C43.485 22.9685 44.7594 25.5702 46.6603 27.6774H6.2903V21.3871ZM57.8709 20.129C56.4833 20.129 55.3548 19.0005 55.3548 17.6129C55.3548 16.2253 56.4833 15.0968 57.8709 15.0968C59.2586 15.0968 60.3871 16.2253 60.3871 17.6129C60.3871 19.0005 59.2586 20.129 57.8709 20.129ZM63.5322 33.9677C63.8782 33.9677 64.1613 34.2508 64.1613 34.5968C64.1613 34.9427 63.8782 35.2258 63.5322 35.2258H52.2096C51.8637 35.2258 51.5806 34.9427 51.5806 34.5968C51.5806 34.2508 51.8637 33.9677 52.2096 33.9677H63.5322ZM63.5322 39H52.2096C51.8637 39 51.5806 38.7169 51.5806 38.371C51.5806 38.025 51.8637 37.7419 52.2096 37.7419H63.5322C63.8782 37.7419 64.1613 38.025 64.1613 38.371C64.1613 38.7169 63.8782 39 63.5322 39ZM74.2258 20.129C74.9202 20.129 75.4838 20.6926 75.4838 21.3871V27.6774H69.0815C70.9825 25.5702 72.2556 22.9685 72.7337 20.129H74.2258ZM70.4516 17.6129C70.4516 22.352 67.821 26.642 63.5876 28.8072L62.9032 29.1594V31.4516H59.129V22.4665C61.2941 21.9042 62.9032 19.9516 62.9032 17.6129C62.9032 14.8376 60.6462 12.5806 57.8709 12.5806C55.0956 12.5806 52.8387 14.8376 52.8387 17.6129C52.8387 19.9516 54.4477 21.9042 56.6129 22.4665V31.4516H52.8387V29.1594L52.1543 28.8084C47.9209 26.642 45.2903 22.352 45.2903 17.6129C45.2903 10.6759 50.934 5.03226 57.8709 5.03226C64.8079 5.03226 70.4516 10.6759 70.4516 17.6129ZM75.4838 2.51613V5.03226H72.9677V2.51613H75.4838Z" fill="#333333"/>
<path d="M72.9677 45.2903H44.0322V47.8064H72.9677V45.2903Z" fill="#333333"/>
<path d="M72.9677 50.3226H44.0322V52.8388H72.9677V50.3226Z" fill="#333333"/>
<path d="M72.9677 55.3549H44.0322V57.871H72.9677V55.3549Z" fill="#333333"/>
<path d="M72.9677 60.3871H44.0322V62.9032H72.9677V60.3871Z" fill="#333333"/>
</svg>
