<svg width="76" height="76" viewBox="0 0 76 76" fill="none" xmlns="http://www.w3.org/2000/svg">
<path d="M49.875 11.875H64.125V19H49.875V11.875Z" fill="#00C695"/>
<path d="M64.125 21.375H73.625V28.5H64.125V21.375Z" fill="#00C695"/>
<path d="M20.1875 61.75L29.6875 57V52.25L20.1875 57V61.75Z" fill="#00C695"/>
<path d="M20.1875 61.75L10.6875 57V52.25L20.1875 57V61.75Z" fill="#00C695"/>
<path d="M22.5625 43.9375H17.8125C15.8484 43.9375 14.25 42.3391 14.25 40.375V35.625C14.25 33.6609 15.8484 32.0625 17.8125 32.0625H22.5625C24.5266 32.0625 26.125 33.6609 26.125 35.625V40.375C26.125 42.3391 24.5266 43.9375 22.5625 43.9375Z" fill="#00C695"/>
<path d="M42.75 58.1875H45.125V60.5625H42.75V58.1875Z" fill="black"/>
<path d="M40.375 65.3125H42.75V67.6875H40.375V65.3125Z" fill="black"/>
<path d="M46.3125 61.75H48.6875V64.125H46.3125V61.75Z" fill="black"/>
<path d="M47.5 68.875H49.875V71.25H47.5V68.875Z" fill="black"/>
<path d="M54.625 65.3125H57V67.6875H54.625V65.3125Z" fill="black"/>
<path d="M61.75 67.6875H64.125V70.0625H61.75V67.6875Z" fill="black"/>
<path d="M35.625 68.875H38V71.25H35.625V68.875Z" fill="black"/>
<path d="M20.1875 22.5625C24.7712 22.5625 28.5 18.8337 28.5 14.25C28.5 9.66625 24.7712 5.9375 20.1875 5.9375C15.6038 5.9375 11.875 9.66625 11.875 14.25C11.875 18.8337 15.6038 22.5625 20.1875 22.5625ZM20.1875 8.3125C23.4614 8.3125 26.125 10.9761 26.125 14.25C26.125 17.5239 23.4614 20.1875 20.1875 20.1875C16.9136 20.1875 14.25 17.5239 14.25 14.25C14.25 10.9761 16.9136 8.3125 20.1875 8.3125Z" fill="black"/>
<path d="M19 36.8125H21.375V39.1875H19V36.8125Z" fill="black"/>
<path d="M61.75 35.625H74.8125V14.25H65.3125V8.3125C65.3125 6.34837 63.7141 4.75 61.75 4.75H51.0625V3.5625C51.0625 2.25269 49.9973 1.1875 48.6875 1.1875H46.3125C45.0027 1.1875 43.9375 2.25269 43.9375 3.5625V22.5625H36.8125V15.4375C36.8125 12.7431 34.9683 10.4203 32.4259 9.728C30.5805 4.75 25.7984 1.1875 20.1875 1.1875C14.5766 1.1875 9.7945 4.75 7.94912 9.728C5.40669 10.4203 3.5625 12.7431 3.5625 15.4375V28.0951C2.06625 30.2254 1.1875 32.8189 1.1875 35.625V43.9375C1.1875 47.8669 4.38306 51.0625 8.3125 51.0625H9.5V67.1413C8.0465 68.4475 7.125 70.3344 7.125 72.4375V74.8125H19H21.375H32.0625H33.25H73.625V72.0421L68.343 65.0002C66.8182 62.9648 64.3874 61.75 61.845 61.75H55.0656C54.5941 61.75 54.1666 61.4709 53.9766 61.0387L52.7808 58.3051C52.3652 57.3562 51.7691 56.5298 51.0625 55.8256V26.125H58.1875V32.0625C58.1875 34.0266 59.7859 35.625 61.75 35.625ZM72.4375 16.625V33.25H61.75C61.0957 33.25 60.5625 32.7168 60.5625 32.0625C60.5625 31.4082 61.0957 30.875 61.75 30.875C63.7141 30.875 65.3125 29.2766 65.3125 27.3125V16.625H72.4375ZM48.6875 3.5625V54.1666C47.9429 53.8294 47.1426 53.6097 46.3125 53.5099V3.5625H48.6875ZM26.125 65.3125C24.2986 65.3125 22.6373 66.0084 21.375 67.1413V48.6875H28.5V65.7281C27.7554 65.4645 26.9586 65.3125 26.125 65.3125ZM30.875 51.0625H32.0625C34.6821 51.0625 36.8125 48.9321 36.8125 46.3125V33.25H43.9375V53.5016C41.0792 53.8139 38.5926 55.6261 37.4609 58.3217L36.328 61.0209C36.1427 61.4638 35.7129 61.75 35.2331 61.75H30.875V51.0625ZM30.875 48.6875V33.25H34.4375V46.3125C34.4375 47.6223 33.3723 48.6875 32.0625 48.6875H30.875ZM43.9375 30.875H41.5625V24.9375H43.9375V30.875ZM34.4375 15.4375V22.5625H30.2563C32.1254 20.3027 33.25 17.4052 33.25 14.25C33.25 13.7263 33.2108 13.2133 33.1502 12.7051C33.9376 13.3641 34.4375 14.3521 34.4375 15.4375ZM20.1875 3.5625C26.0799 3.5625 30.875 8.35763 30.875 14.25C30.875 20.1424 26.0799 24.9375 20.1875 24.9375C14.2951 24.9375 9.5 20.1424 9.5 14.25C9.5 8.35763 14.2951 3.5625 20.1875 3.5625ZM7.22475 12.7051C7.16419 13.2133 7.125 13.7263 7.125 14.25C7.125 17.6546 8.4455 20.7504 10.5878 23.0779C8.85044 23.5766 7.28294 24.4281 5.9375 25.5336V15.4375C5.9375 14.3521 6.43744 13.3641 7.22475 12.7051ZM12.8393 25.042C14.9352 26.4729 17.4646 27.3125 20.1875 27.3125C22.9734 27.3125 25.5514 26.429 27.6747 24.9375H39.1875V30.875H28.5V46.3125H11.875V30.875H9.5V41.5625H3.5625V35.625C3.5625 30.2076 7.52281 25.7379 12.8393 25.042ZM8.3125 48.6875C5.69287 48.6875 3.5625 46.5571 3.5625 43.9375H9.5V48.6875H8.3125ZM11.875 48.6875H19V67.1413C17.7377 66.0084 16.0764 65.3125 14.25 65.3125C13.4164 65.3125 12.6196 65.4645 11.875 65.7281V48.6875ZM9.5 72.4375C9.5 69.8179 11.6304 67.6875 14.25 67.6875C16.8696 67.6875 19 69.8179 19 72.4375H9.5ZM21.375 72.4375C21.375 69.8179 23.5054 67.6875 26.125 67.6875C28.7446 67.6875 30.875 69.8179 30.875 72.4375H21.375ZM55.0656 64.125H61.845C63.6453 64.125 65.3636 64.9847 66.4442 66.4252L70.9531 72.4375H33.25C33.25 70.3344 32.3285 68.4475 30.875 67.1413V64.125H35.2331C36.6712 64.125 37.9608 63.2676 38.5189 61.9412L39.6518 59.2408C40.5246 57.1579 42.5493 55.8125 44.8079 55.8125H45.3376C47.6211 55.8125 49.6898 57.1651 50.6053 59.2574L51.8011 61.9911C52.3688 63.2866 53.6501 64.125 55.0656 64.125ZM51.0625 7.125H61.75C62.4043 7.125 62.9375 7.65819 62.9375 8.3125V23.9685C62.5646 23.8355 62.168 23.75 61.75 23.75H51.0625V7.125ZM61.75 26.125C62.4043 26.125 62.9375 26.6582 62.9375 27.3125C62.9375 27.9668 62.4043 28.5 61.75 28.5C61.332 28.5 60.9354 28.5855 60.5625 28.7185V26.125H61.75Z" fill="black"/>
<path d="M53.4375 9.5H55.8125V11.875H53.4375V9.5Z" fill="black"/>
<path d="M53.4375 19H55.8125V21.375H53.4375V19Z" fill="black"/>
<path d="M53.4375 14.25H55.8125V16.625H53.4375V14.25Z" fill="black"/>
</svg>
