<svg width="89" height="89" viewBox="0 0 89 89" fill="none" xmlns="http://www.w3.org/2000/svg">
<path d="M44.4573 16.1664C28.8327 16.1664 16.1663 28.8328 16.1663 44.4575C16.1663 60.0821 28.8327 72.7485 44.4573 72.7485C60.0819 72.7485 72.7484 60.0821 72.7484 44.4575C72.7484 28.8328 60.0819 16.1664 44.4573 16.1664ZM60.6237 46.4782L58.3256 47.2439C57.9585 49.0792 57.2373 50.7862 56.2347 52.29L57.3201 54.4588L54.4626 57.3153L52.2938 56.2309C50.7881 57.2324 49.083 57.9567 47.2478 58.3218L46.4781 60.6238H42.4365L41.6708 58.3257C39.8356 57.9587 38.1285 57.2374 36.6248 56.2349L34.456 57.3203L31.5995 54.4627L32.6839 52.2939C31.6823 50.7882 30.9581 49.0832 30.593 47.2479L28.291 46.4782V42.4367L30.5891 41.671C30.9561 39.8357 31.6774 38.1287 32.6799 36.6249L31.5945 34.4561L34.452 31.5996L36.6208 32.684C38.1266 31.6825 39.8316 30.9582 41.6669 30.5931L42.4365 28.2911H46.4781L47.2438 30.5892C49.0791 30.9562 50.7861 31.6775 52.2899 32.68L54.4587 31.5946L57.3152 34.4522L56.2308 36.621C57.2323 38.1267 57.9566 39.8317 58.3216 41.667L60.6237 42.4367V46.4782Z" fill="#00C695"/>
<path d="M44.4574 0C19.905 0 0 19.905 0 44.4574C0 69.0098 19.905 88.9148 44.4574 88.9148C69.0098 88.9148 88.9148 69.0098 88.9148 44.4574C88.9148 19.905 69.0098 0 44.4574 0ZM44.4574 80.8316C24.3689 80.8316 8.08316 64.5459 8.08316 44.4574C8.08316 24.3689 24.3689 8.08316 44.4574 8.08316C64.5459 8.08316 80.8316 24.3689 80.8316 44.4574C80.8316 64.5459 64.5459 80.8316 44.4574 80.8316Z" fill="#00C695"/>
<path d="M47.9353 62.6446H40.9809L40.1087 60.0298C38.8575 59.6825 37.6597 59.1852 36.5259 58.5428L34.0562 59.7772L29.1374 54.8585L30.3718 52.3907C29.7314 51.2579 29.2341 50.0591 28.8868 48.8079L26.27 47.9357V40.9793L28.8868 40.1091C29.2341 38.8579 29.7314 37.66 30.3718 36.5263L29.1374 34.0585L34.0562 29.1398L36.5259 30.3741C37.6616 29.7338 38.8575 29.2364 40.1087 28.8872L40.979 26.2704H47.9333L48.8056 28.8852C50.0567 29.2325 51.2546 29.7298 52.3883 30.3722L54.8581 29.1378L59.7769 34.0565L58.5425 36.5263C58.7299 36.8568 58.9036 37.1923 59.0635 37.5298L55.4116 39.2625C55.165 38.7444 54.8758 38.2333 54.5512 37.7449L53.9 36.768L54.8601 34.8548L54.0618 34.0565L52.1446 35.0146L51.1697 34.3634C49.8505 33.4823 48.3961 32.8804 46.8479 32.5715L45.6974 32.3407L45.0205 30.312H43.8917L43.2168 32.3407L42.0663 32.5715C40.5182 32.8804 39.0657 33.4843 37.7445 34.3634L36.7696 35.0146L34.8525 34.0565L34.0542 34.8548L35.0143 36.768L34.363 37.7449C33.4819 39.0641 32.882 40.5185 32.5712 42.0667L32.3423 43.2172L30.3116 43.8941V45.0209L32.3423 45.6978L32.5712 46.8483C32.88 48.3965 33.4819 49.8489 34.363 51.1701L35.0143 52.147L34.0542 54.0602L34.8525 54.8585L36.7696 53.9004L37.7445 54.5516C39.0638 55.4327 40.5182 56.0346 42.0663 56.3435L43.2168 56.5744L43.8937 58.603H45.0225L45.6974 56.5744L46.8479 56.3435C48.3961 56.0346 49.8485 55.4307 51.1697 54.5516L52.1446 53.9004L54.0618 54.8585L54.8601 54.0602L53.9 52.147L54.5512 51.1701C54.8758 50.6817 55.165 50.1706 55.4116 49.6526L59.0635 51.3852C58.9036 51.7227 58.7299 52.0582 58.5425 52.3887L59.7769 54.8585L54.8581 59.7772L52.3883 58.5428C51.2526 59.1832 50.0567 59.6805 48.8056 60.0298L47.9353 62.6446Z" fill="black"/>
<path d="M44.4575 80.8317C24.4015 80.8317 8.08325 64.5134 8.08325 44.4574C8.08325 35.5741 11.3552 26.9995 17.2962 20.3195L20.3155 23.0043C15.0327 28.9463 12.1248 36.5647 12.1248 44.4574C12.1248 62.2844 26.6305 76.7901 44.4575 76.7901C60.1304 76.7901 73.5044 65.5929 76.2543 50.1646L80.2338 50.875C77.1374 68.2343 62.093 80.8317 44.4575 80.8317Z" fill="black"/>
</svg>
