<svg width="105" height="102" viewBox="0 0 105 102" fill="none" xmlns="http://www.w3.org/2000/svg">
<rect y="29.0852" width="105" height="69" fill="#F4F5FA"/>
<path d="M51.5426 18.0852C30.3038 18.0852 13.0852 35.3038 13.0852 56.5426C13.0852 77.7814 30.3038 95 51.5426 95C72.7814 95 90 77.7814 90 56.5426C90 35.3038 72.7814 18.0852 51.5426 18.0852ZM51.5426 88.0077C34.1652 88.0077 20.0775 73.9199 20.0775 56.5426C20.0775 39.1652 34.1652 25.0775 51.5426 25.0775C68.9199 25.0775 83.0077 39.1652 83.0077 56.5426C83.0077 73.9199 68.9199 88.0077 51.5426 88.0077Z" fill="#00C695"/>
<path d="M51.5794 37.1161C40.8303 37.1161 32.116 45.8305 32.116 56.5795C32.116 67.3285 40.8303 76.0429 51.5794 76.0429C62.3284 76.0429 71.0427 67.3285 71.0427 56.5795C71.0427 45.8305 62.3284 37.1161 51.5794 37.1161ZM51.5794 72.5041C42.7846 72.5041 35.6548 65.3742 35.6548 56.5795C35.6548 47.7847 42.7846 40.6549 51.5794 40.6549C60.3741 40.6549 67.5039 47.7847 67.5039 56.5795C67.5039 65.3742 60.3741 72.5041 51.5794 72.5041Z" fill="#00C695"/>
<path d="M65.049 67.5481C62.5502 70.4002 59.2714 72.362 55.5668 73.2205C48.7222 74.8066 41.5226 72.2383 37.2253 66.6778L38.3658 65.7962C42.3203 70.9121 48.9445 73.2748 55.2412 71.8156C58.6502 71.0257 61.6664 69.2216 63.9644 66.5982L65.049 67.5481Z" fill="black"/>
<path d="M39.6147 66.9808L38.1309 66.7351L37.8235 69.9559L35.8772 69.7001L36.5478 64.5978L41.6501 65.2685L41.3943 67.2147L39.6147 66.9808Z" fill="black"/>
<path d="M37.3111 46.4734C39.7168 43.5424 42.9307 41.476 46.6058 40.4987C53.3958 38.693 60.6744 41.0282 65.1485 46.4475L64.0369 47.3654C59.9197 42.3794 53.2229 40.2313 46.9764 41.8924C43.5947 42.7917 40.638 44.6919 38.4258 47.388L37.3111 46.4734Z" fill="black"/>
<path d="M62.7508 46.2216L64.2417 46.4194L64.4453 43.1904L66.3988 43.3834L65.8928 48.5046L60.7715 47.9986L60.9645 46.0451L62.7508 46.2216Z" fill="black"/>
<rect x="52.7998" width="22.7282" height="37.6201" transform="rotate(49.9551 52.7998 0)" fill="#F4F5FA"/>
<rect x="75.5723" y="11.2607" width="29.0227" height="23.2771" transform="rotate(59.1986 75.5723 11.2607)" fill="#F4F5FA"/>
<rect x="54.1873" y="79.6914" width="16.0473" height="22.4868" transform="rotate(72.5474 54.1873 79.6914)" fill="#F4F5FA"/>
<rect x="34.0588" y="70.1029" width="19.809" height="26.2682" transform="rotate(72.5474 34.0588 70.1029)" fill="#F4F5FA"/>
<path d="M35.513 30.9412L36.5359 28.4658L31.0719 26.6377L32.2981 23.3641L40.8801 26.5787L37.6654 35.1607L34.3918 33.9344L35.513 30.9412Z" fill="black"/>
<path d="M24.3042 74.8369C20.3609 69.3553 18.2756 62.8786 18.2756 56.1066C18.2756 43.5949 25.6255 32.1374 36.9995 26.9177L38.0704 29.2508C27.6055 34.0544 20.8437 44.5964 20.8437 56.1066C20.8437 62.338 22.7608 68.296 26.3882 73.3372L24.3042 74.8369Z" fill="black"/>
<path d="M77.3269 37.9812C81.2702 43.4628 83.3555 49.9395 83.3555 56.7115C83.3555 69.2232 76.0056 80.6808 64.6316 85.9004L63.5607 83.5673C74.0256 78.7637 80.7874 68.2217 80.7874 56.7115C80.7874 50.4801 78.8703 44.5221 75.2429 39.481L77.3269 37.9812Z" fill="black"/>
<path d="M66.1181 81.8768L65.0952 84.3522L70.5592 86.1803L69.333 89.4539L60.751 86.2393L63.9657 77.6573L67.2393 78.8836L66.1181 81.8768Z" fill="black"/>
</svg>
