<svg height="480pt" viewBox="0 0 480 480" width="480pt" xmlns="http://www.w3.org/2000/svg"><g fill="#d9de6d"><path d="m152 392h176v16h-176zm0 0"/><path d="m96.769531 324.539062 93.632813-195.746093 14.441406 6.90625-93.632812 195.75zm0 0"/><path d="m275.152344 135.683594 14.441406-6.90625 93.632812 195.746094-14.441406 6.90625zm0 0"/></g><path d="m320 80c0 44.183594-35.816406 80-80 80s-80-35.816406-80-80 35.816406-80 80-80 80 35.816406 80 80zm0 0" fill="#76a7ba"/><path d="m160 80c0 10.769531 2.160156 21.03125 6.015625 30.40625 13.703125 10.984375 31.0625 17.59375 49.984375 17.59375 44.183594 0 80-35.816406 80-80 0-10.769531-2.160156-21.03125-6.015625-30.40625-13.703125-10.984375-31.0625-17.59375-49.984375-17.59375-44.183594 0-80 35.816406-80 80zm0 0" fill="#96c5da"/><path d="m160 400c0 44.183594-35.816406 80-80 80s-80-35.816406-80-80 35.816406-80 80-80 80 35.816406 80 80zm0 0" fill="#76a7ba"/><path d="m0 400c0 10.769531 2.160156 21.03125 6.015625 30.40625 13.703125 10.984375 31.0625 17.59375 49.984375 17.59375 44.183594 0 80-35.816406 80-80 0-10.769531-2.160156-21.03125-6.015625-30.40625-13.703125-10.984375-31.0625-17.59375-49.984375-17.59375-44.183594 0-80 35.816406-80 80zm0 0" fill="#96c5da"/><path d="m480 400c0 44.183594-35.816406 80-80 80s-80-35.816406-80-80 35.816406-80 80-80 80 35.816406 80 80zm0 0" fill="#76a7ba"/><path d="m320 400c0 10.769531 2.160156 21.03125 6.015625 30.40625 13.703125 10.984375 31.0625 17.59375 49.984375 17.59375 44.183594 0 80-35.816406 80-80 0-10.769531-2.160156-21.03125-6.015625-30.40625-13.703125-10.984375-31.0625-17.59375-49.984375-17.59375-44.183594 0-80 35.816406-80 80zm0 0" fill="#96c5da"/></svg>