<svg height="512pt" viewBox="0 0 512 512" width="512pt" xmlns="http://www.w3.org/2000/svg"><g fill="#b0b4b9"><path d="m78.753906 182.191406-29.507812-12.382812c4.339844-10.320313 9.472656-20.382813 15.28125-29.921875l27.328125 16.65625c-4.976563 8.160156-9.390625 16.800781-13.101563 25.648437zm31.292969-50.734375-24.335937-20.800781c7.457031-8.6875 15.617187-16.894531 24.304687-24.367188l20.878906 24.253907c-7.453125 6.402343-14.460937 13.441406-20.847656 20.914062zm45.890625-39.234375-16.753906-27.261718c9.792968-6.015626 20.097656-11.3125 30.640625-15.714844l12.351562 29.523437c-9.023437 3.773438-17.855469 8.300781-26.238281 13.453125zm0 0"/><path d="m433.246094 182.175781c-3.773438-9.023437-8.316406-17.855469-13.46875-26.253906l27.261718-16.753906c6.015626 9.792969 11.3125 20.097656 15.714844 30.640625zm-31.773438-51.28125c-6.417968-7.453125-13.457031-14.460937-20.929687-20.847656l20.800781-24.335937c8.6875 7.441406 16.894531 15.617187 24.367188 24.304687zm-46.015625-39.039062c-8.175781-4.992188-16.800781-9.390625-25.664062-13.101563l12.382812-29.507812c10.320313 4.339844 20.382813 9.472656 29.921875 15.28125zm0 0"/><path d="m342.175781 462.753906-12.351562-29.523437c9.023437-3.773438 17.855469-8.320313 26.253906-13.46875l16.753906 27.261719c-9.808593 6.03125-20.113281 11.3125-30.65625 15.730468zm59.808594-37.042968-20.878906-24.253907c7.453125-6.417969 14.460937-13.457031 20.847656-20.929687l24.335937 20.800781c-7.457031 8.703125-15.617187 16.910156-24.304687 24.382813zm45.488281-53.597657-27.328125-16.65625c4.992188-8.175781 9.390625-16.800781 13.101563-25.664062l29.507812 12.382812c-4.339844 10.335938-9.472656 20.398438-15.28125 29.9375zm0 0"/><path d="m169.808594 462.753906c-10.320313-4.339844-20.382813-9.472656-29.921875-15.28125l16.65625-27.328125c8.175781 4.992188 16.800781 9.390625 25.664062 13.101563zm-59.152344-36.480468c-8.6875-7.441407-16.894531-15.617188-24.367188-24.304688l24.253907-20.878906c6.417969 7.453125 13.457031 14.460937 20.929687 20.847656zm-45.695312-53.457032c-6.015626-9.792968-11.3125-20.097656-15.714844-30.640625l29.523437-12.351562c3.773438 9.023437 8.320313 17.855469 13.46875 26.253906zm0 0"/></g><path d="m208 0h96v96h-96zm0 0" fill="#ffcb5a"/><path d="m240 32h32v32h-32zm0 0" fill="#fff"/><path d="m208 416h96v96h-96zm0 0" fill="#ffcb5a"/><path d="m240 448h32v32h-32zm0 0" fill="#fff"/><path d="m0 208h96v96h-96zm0 0" fill="#ffcb5a"/><path d="m32 272v-32h32v32zm0 0" fill="#fff"/><path d="m416 208h96v96h-96zm0 0" fill="#ffcb5a"/><path d="m448 272v-32h32v32zm0 0" fill="#fff"/></svg>