<?xml version="1.0" encoding="UTF-8"?>
<!DOCTYPE svg PUBLIC "-//W3C//DTD SVG 1.1//EN" "http://www.w3.org/Graphics/SVG/1.1/DTD/svg11.dtd">
<svg version="1.2" width="180.62mm" height="180.62mm" viewBox="0 0 18062 18062" preserveAspectRatio="xMidYMid" fill-rule="evenodd" stroke-width="28.222" stroke-linejoin="round" xmlns="http://www.w3.org/2000/svg" xmlns:ooo="http://xml.openoffice.org/svg/export" xmlns:xlink="http://www.w3.org/1999/xlink" xmlns:presentation="http://sun.com/xmlns/staroffice/presentation" xmlns:smil="http://www.w3.org/2001/SMIL20/" xmlns:anim="urn:oasis:names:tc:opendocument:xmlns:animation:1.0" xml:space="preserve">
 <defs class="ClipPathGroup">
  <clipPath id="presentation_clip_path" clipPathUnits="userSpaceOnUse">
   <rect x="0" y="0" width="18062" height="18062"/>
  </clipPath>
 </defs>
 <defs class="TextShapeIndex">
  <g ooo:slide="id1" ooo:id-list="id3 id4 id5 id6 id7 id8 id9 id10 id11 id12 id13 id14 id15 id16 id17 id18 id19 id20 id21 id22 id23 id24 id25 id26"/>
 </defs>
 <defs class="EmbeddedBulletChars">
  <g id="bullet-char-template(57356)" transform="scale(0.00048828125,-0.00048828125)">
   <path d="M 580,1141 L 1163,571 580,0 -4,571 580,1141 Z"/>
  </g>
  <g id="bullet-char-template(57354)" transform="scale(0.00048828125,-0.00048828125)">
   <path d="M 8,1128 L 1137,1128 1137,0 8,0 8,1128 Z"/>
  </g>
  <g id="bullet-char-template(10146)" transform="scale(0.00048828125,-0.00048828125)">
   <path d="M 174,0 L 602,739 174,1481 1456,739 174,0 Z M 1358,739 L 309,1346 659,739 1358,739 Z"/>
  </g>
  <g id="bullet-char-template(10132)" transform="scale(0.00048828125,-0.00048828125)">
   <path d="M 2015,739 L 1276,0 717,0 1260,543 174,543 174,936 1260,936 717,1481 1274,1481 2015,739 Z"/>
  </g>
  <g id="bullet-char-template(10007)" transform="scale(0.00048828125,-0.00048828125)">
   <path d="M 0,-2 C -7,14 -16,27 -25,37 L 356,567 C 262,823 215,952 215,954 215,979 228,992 255,992 264,992 276,990 289,987 310,991 331,999 354,1012 L 381,999 492,748 772,1049 836,1024 860,1049 C 881,1039 901,1025 922,1006 886,937 835,863 770,784 769,783 710,716 594,584 L 774,223 C 774,196 753,168 711,139 L 727,119 C 717,90 699,76 672,76 641,76 570,178 457,381 L 164,-76 C 142,-110 111,-127 72,-127 30,-127 9,-110 8,-76 1,-67 -2,-52 -2,-32 -2,-23 -1,-13 0,-2 Z"/>
  </g>
  <g id="bullet-char-template(10004)" transform="scale(0.00048828125,-0.00048828125)">
   <path d="M 285,-33 C 182,-33 111,30 74,156 52,228 41,333 41,471 41,549 55,616 82,672 116,743 169,778 240,778 293,778 328,747 346,684 L 369,508 C 377,444 397,411 428,410 L 1163,1116 C 1174,1127 1196,1133 1229,1133 1271,1133 1292,1118 1292,1087 L 1292,965 C 1292,929 1282,901 1262,881 L 442,47 C 390,-6 338,-33 285,-33 Z"/>
  </g>
  <g id="bullet-char-template(9679)" transform="scale(0.00048828125,-0.00048828125)">
   <path d="M 813,0 C 632,0 489,54 383,161 276,268 223,411 223,592 223,773 276,916 383,1023 489,1130 632,1184 813,1184 992,1184 1136,1130 1245,1023 1353,916 1407,772 1407,592 1407,412 1353,268 1245,161 1136,54 992,0 813,0 Z"/>
  </g>
  <g id="bullet-char-template(8226)" transform="scale(0.00048828125,-0.00048828125)">
   <path d="M 346,457 C 273,457 209,483 155,535 101,586 74,649 74,723 74,796 101,859 155,911 209,963 273,989 346,989 419,989 480,963 531,910 582,859 608,796 608,723 608,648 583,586 532,535 482,483 420,457 346,457 Z"/>
  </g>
  <g id="bullet-char-template(8211)" transform="scale(0.00048828125,-0.00048828125)">
   <path d="M -4,459 L 1135,459 1135,606 -4,606 -4,459 Z"/>
  </g>
 </defs>
 <defs class="TextEmbeddedBitmaps"/>
 <g>
  <g id="id2" class="Master_Slide">
   <g id="bg-id2" class="Background"/>
   <g id="bo-id2" class="BackgroundObjects"/>
  </g>
 </g>
 <g class="SlideGroup">
  <g>
   <g id="id1" class="Slide" clip-path="url(#presentation_clip_path)">
    <g class="Page">
     <g class="com.sun.star.drawing.ClosedBezierShape">
      <g id="id3">
       <rect class="BoundingBox" stroke="none" fill="none" x="206" y="1112" width="17689" height="16789"/>
       <path fill="rgb(56,43,115)" stroke="none" d="M 16403,14004 L 16403,11411 C 17266,11163 17894,10404 17894,9505 17894,8607 17266,7847 16403,7600 L 16403,5009 C 17266,4762 17894,4002 17894,3104 17894,2003 16954,1113 15796,1113 14850,1113 14049,1709 13789,2526 L 11059,2526 C 10796,1709 9998,1113 9049,1113 8102,1113 7302,1709 7042,2526 L 4311,2526 C 4051,1709 3251,1113 2304,1113 1145,1113 206,2003 206,3104 206,4002 835,4762 1695,5009 L 1695,7600 C 835,7847 206,8607 206,9505 206,10406 835,11163 1695,11413 L 1695,14004 C 835,14251 206,15011 206,15909 206,17008 1145,17900 2304,17900 3251,17900 4051,17304 4311,16485 L 7042,16485 C 7302,17304 8102,17900 9049,17900 9996,17900 10796,17304 11056,16485 L 13789,16485 C 14049,17304 14850,17900 15796,17900 16954,17900 17894,17008 17894,15909 17894,15011 17266,14251 16403,14004 Z M 13789,15333 L 11059,15333 C 10854,14698 10327,14196 9658,14004 L 9658,11411 C 10327,11219 10854,10718 11059,10083 L 13789,10083 C 13991,10718 14520,11219 15189,11411 L 15189,14004 C 14520,14196 13991,14698 13789,15333 Z M 2911,14004 L 2911,11411 C 3580,11219 4109,10718 4311,10083 L 7042,10083 C 7244,10718 7773,11219 8442,11413 L 8442,14004 C 7773,14196 7244,14698 7042,15333 L 4311,15333 C 4109,14698 3580,14196 2911,14004 Z M 4311,3680 L 7042,3680 C 7244,4315 7773,4817 8442,5009 L 8442,7600 C 7773,7792 7244,8294 7042,8930 L 4311,8930 C 4109,8294 3580,7792 2911,7600 L 2911,5009 C 3580,4817 4109,4315 4311,3680 Z M 15189,5009 L 15189,7600 C 14520,7792 13991,8294 13789,8930 L 11056,8930 C 10854,8294 10327,7792 9658,7600 L 9658,5009 C 10327,4817 10854,4315 11056,3680 L 13789,3680 C 13991,4315 14520,4817 15189,5009 Z"/>
      </g>
     </g>
     <g class="com.sun.star.drawing.ClosedBezierShape">
      <g id="id4">
       <rect class="BoundingBox" stroke="none" fill="none" x="1697" y="1519" width="14710" height="13961"/>
       <path fill="rgb(255,255,255)" stroke="none" d="M 15798,15478 L 2304,15478 C 1969,15478 1697,15221 1697,14902 L 1697,2095 C 1697,1776 1969,1519 2304,1519 L 15798,1519 C 16134,1519 16405,1776 16405,2095 L 16405,14902 C 16405,15221 16134,15478 15798,15478 Z M 2913,14327 L 15192,14327 15192,2673 2913,2673 2913,14327 Z"/>
      </g>
     </g>
     <g class="com.sun.star.drawing.PolyPolygonShape">
      <g id="id5">
       <rect class="BoundingBox" stroke="none" fill="none" x="2304" y="2095" width="13496" height="12809"/>
       <path fill="rgb(209,211,212)" stroke="none" d="M 2304,14902 L 15798,14902 15798,2095 2304,2095 2304,14902 Z M 2911,2671 L 15189,2671 15189,14324 2911,14324 2911,2671 Z"/>
      </g>
     </g>
     <g class="com.sun.star.drawing.ClosedBezierShape">
      <g id="id6">
       <rect class="BoundingBox" stroke="none" fill="none" x="8442" y="1519" width="1217" height="13961"/>
       <path fill="rgb(255,255,255)" stroke="none" d="M 9051,15478 C 8716,15478 8442,15221 8442,14902 L 8442,2095 C 8442,1776 8716,1519 9051,1519 9387,1519 9658,1776 9658,2095 L 9658,14902 C 9658,15221 9387,15478 9051,15478 Z"/>
      </g>
     </g>
     <g class="com.sun.star.drawing.ClosedBezierShape">
      <g id="id7">
       <rect class="BoundingBox" stroke="none" fill="none" x="1697" y="7920" width="14710" height="1156"/>
       <path fill="rgb(255,255,255)" stroke="none" d="M 15798,9075 L 2304,9075 C 1969,9075 1697,8817 1697,8499 1697,8180 1969,7921 2304,7921 L 15798,7921 C 16134,7921 16405,8180 16405,8499 16405,8817 16134,9075 15798,9075 Z"/>
      </g>
     </g>
     <g class="com.sun.star.drawing.ClosedBezierShape">
      <g id="id8">
       <rect class="BoundingBox" stroke="none" fill="none" x="1697" y="8208" width="14710" height="868"/>
       <path fill="rgb(209,211,212)" stroke="none" d="M 15798,8497 L 2304,8497 C 2080,8497 1885,8382 1779,8209 1728,8294 1697,8393 1697,8497 1697,8817 1969,9075 2304,9075 L 15798,9075 C 16134,9075 16405,8817 16405,8497 16405,8393 16375,8294 16323,8209 16220,8382 16022,8497 15798,8497 Z"/>
      </g>
     </g>
     <g class="com.sun.star.drawing.ClosedBezierShape">
      <g id="id9">
       <rect class="BoundingBox" stroke="none" fill="none" x="206" y="6507" width="4197" height="3984"/>
       <path fill="rgb(254,222,58)" stroke="none" d="M 4402,8499 C 4402,8866 4314,9177 4120,9495 3929,9812 3688,10040 3354,10222 3018,10406 2691,10490 2304,10490 1919,10490 1590,10406 1256,10222 921,10040 680,9812 488,9495 295,9177 206,8866 206,8499 206,8133 295,7821 488,7504 680,7186 921,6957 1256,6775 1590,6591 1919,6508 2304,6508 2691,6508 3018,6591 3354,6775 3688,6957 3929,7186 4120,7504 4314,7821 4402,8133 4402,8499 Z"/>
      </g>
     </g>
     <g class="com.sun.star.drawing.ClosedBezierShape">
      <g id="id10">
       <rect class="BoundingBox" stroke="none" fill="none" x="206" y="7818" width="4197" height="2671"/>
       <path fill="rgb(231,173,39)" stroke="none" d="M 2304,9132 C 1396,9132 624,8584 331,7819 249,8031 206,8260 206,8497 206,9597 1147,10488 2304,10488 3462,10488 4402,9597 4402,8497 4402,8260 4359,8031 4277,7819 3984,8584 3212,9132 2304,9132 Z"/>
      </g>
     </g>
     <g class="com.sun.star.drawing.ClosedBezierShape">
      <g id="id11">
       <rect class="BoundingBox" stroke="none" fill="none" x="6953" y="6507" width="4197" height="3984"/>
       <path fill="rgb(254,222,58)" stroke="none" d="M 11149,8499 C 11149,8866 11061,9177 10867,9495 10676,9812 10435,10040 10101,10222 9766,10406 9439,10490 9051,10490 8666,10490 8337,10406 8003,10222 7668,10040 7427,9812 7235,9495 7042,9177 6954,8866 6954,8499 6954,8133 7042,7821 7235,7504 7427,7186 7668,6957 8003,6775 8337,6591 8666,6508 9051,6508 9439,6508 9766,6591 10101,6775 10435,6957 10676,7186 10867,7504 11061,7821 11149,8133 11149,8499 Z"/>
      </g>
     </g>
     <g class="com.sun.star.drawing.ClosedBezierShape">
      <g id="id12">
       <rect class="BoundingBox" stroke="none" fill="none" x="6953" y="7818" width="4197" height="2671"/>
       <path fill="rgb(231,173,39)" stroke="none" d="M 9051,9132 C 8143,9132 7371,8584 7078,7819 6997,8031 6954,8260 6954,8497 6954,9597 7894,10488 9051,10488 10209,10488 11149,9597 11149,8497 11149,8260 11106,8031 11024,7819 10732,8584 9959,9132 9051,9132 Z"/>
      </g>
     </g>
     <g class="com.sun.star.drawing.ClosedBezierShape">
      <g id="id13">
       <rect class="BoundingBox" stroke="none" fill="none" x="13698" y="6507" width="4197" height="3984"/>
       <path fill="rgb(254,222,58)" stroke="none" d="M 17894,8499 C 17894,8866 17806,9177 17612,9495 17421,9812 17180,10040 16846,10222 16510,10406 16183,10490 15796,10490 15411,10490 15082,10406 14748,10222 14413,10040 14172,9812 13980,9495 13787,9177 13698,8866 13698,8499 13698,8133 13787,7821 13980,7504 14172,7186 14413,6957 14748,6775 15082,6591 15411,6508 15796,6508 16183,6508 16510,6591 16846,6775 17180,6957 17421,7186 17612,7504 17806,7821 17894,8133 17894,8499 Z"/>
      </g>
     </g>
     <g class="com.sun.star.drawing.ClosedBezierShape">
      <g id="id14">
       <rect class="BoundingBox" stroke="none" fill="none" x="13698" y="7818" width="4197" height="2671"/>
       <path fill="rgb(231,173,39)" stroke="none" d="M 15796,9132 C 14888,9132 14116,8584 13823,7819 13741,8031 13698,8260 13698,8497 13698,9597 14639,10488 15796,10488 16954,10488 17894,9597 17894,8497 17894,8260 17851,8031 17769,7819 17476,8584 16704,9132 15796,9132 Z"/>
      </g>
     </g>
     <g class="com.sun.star.drawing.ClosedBezierShape">
      <g id="id15">
       <rect class="BoundingBox" stroke="none" fill="none" x="199" y="12905" width="4205" height="3991"/>
       <path fill="rgb(28,174,228)" stroke="none" d="M 3785,13492 C 4058,13751 4228,14031 4327,14384 4428,14740 4428,15060 4327,15415 4228,15769 4058,16048 3785,16308 3512,16567 3217,16728 2845,16822 2470,16918 2133,16918 1758,16822 1386,16728 1091,16567 818,16308 545,16048 375,15769 276,15415 175,15060 175,14740 276,14384 375,14031 545,13751 818,13492 1091,13233 1386,13071 1758,12977 2133,12881 2470,12881 2845,12977 3217,13071 3512,13233 3785,13492 Z"/>
      </g>
     </g>
     <g class="com.sun.star.drawing.ClosedBezierShape">
      <g id="id16">
       <rect class="BoundingBox" stroke="none" fill="none" x="206" y="14222" width="4197" height="2671"/>
       <path fill="rgb(0,154,221)" stroke="none" d="M 2304,15535 C 1396,15535 624,14988 331,14222 249,14435 206,14663 206,14900 206,16001 1147,16891 2304,16891 3462,16891 4402,16001 4402,14900 4402,14663 4359,14435 4277,14222 3984,14988 3212,15535 2304,15535 Z"/>
      </g>
     </g>
     <g class="com.sun.star.drawing.ClosedBezierShape">
      <g id="id17">
       <rect class="BoundingBox" stroke="none" fill="none" x="204" y="99" width="4204" height="3990"/>
       <path fill="rgb(239,90,157)" stroke="none" d="M 2791,158 C 3165,241 3464,395 3746,646 4026,899 4204,1173 4314,1524 4426,1875 4435,2198 4346,2555 4256,2910 4095,3194 3830,3462 3565,3727 3277,3897 2907,4001 2537,4107 2197,4115 1821,4031 1444,3946 1145,3792 865,3541 583,3290 405,3016 295,2665 185,2314 175,1991 265,1634 353,1277 515,993 779,727 1046,460 1334,290 1704,186 2074,82 2414,72 2791,158 Z"/>
      </g>
     </g>
     <g class="com.sun.star.drawing.ClosedBezierShape">
      <g id="id18">
       <rect class="BoundingBox" stroke="none" fill="none" x="206" y="1417" width="4197" height="2670"/>
       <path fill="rgb(228,61,145)" stroke="none" d="M 2304,2730 C 1396,2730 624,2183 331,1417 249,1629 206,1858 206,2095 206,3196 1147,4086 2304,4086 3462,4086 4402,3196 4402,2095 4402,1858 4359,1629 4277,1417 3984,2183 3212,2730 2304,2730 Z"/>
      </g>
     </g>
     <g class="com.sun.star.drawing.ClosedBezierShape">
      <g id="id19">
       <rect class="BoundingBox" stroke="none" fill="none" x="6957" y="12905" width="4205" height="3991"/>
       <path fill="rgb(254,222,58)" stroke="none" d="M 11048,14265 C 11171,14613 11192,14933 11117,15293 11039,15652 10889,15942 10633,16218 10377,16491 10095,16671 9729,16787 9363,16904 9023,16924 8645,16853 8266,16779 7961,16636 7672,16393 7382,16150 7195,15883 7070,15536 6947,15188 6926,14866 7003,14506 7078,14147 7229,13857 7485,13583 7741,13308 8023,13130 8391,13012 8757,12895 9094,12875 9473,12948 9852,13020 10157,13163 10448,13406 10736,13649 10925,13916 11048,14265 Z"/>
      </g>
     </g>
     <g class="com.sun.star.drawing.ClosedBezierShape">
      <g id="id20">
       <rect class="BoundingBox" stroke="none" fill="none" x="6953" y="14222" width="4197" height="2671"/>
       <path fill="rgb(231,173,39)" stroke="none" d="M 9051,15535 C 8143,15535 7371,14988 7078,14222 6997,14435 6954,14663 6954,14900 6954,16001 7894,16891 9051,16891 10209,16891 11149,16001 11149,14900 11149,14663 11106,14435 11024,14222 10732,14988 9959,15535 9051,15535 Z"/>
      </g>
     </g>
     <g class="com.sun.star.drawing.ClosedBezierShape">
      <g id="id21">
       <rect class="BoundingBox" stroke="none" fill="none" x="6951" y="112" width="4201" height="3987"/>
       <path fill="rgb(254,222,58)" stroke="none" d="M 9358,136 C 9738,189 10050,317 10354,546 10657,773 10859,1032 11001,1373 11143,1714 11182,2033 11126,2396 11070,2757 10935,3054 10694,3341 10455,3629 10182,3821 9822,3956 9465,4091 9127,4128 8744,4075 8364,4021 8052,3893 7748,3664 7447,3437 7243,3178 7101,2837 6959,2498 6920,2178 6976,1814 7032,1453 7167,1157 7408,869 7647,583 7920,389 8280,254 8639,119 8975,82 9358,136 Z"/>
      </g>
     </g>
     <g class="com.sun.star.drawing.ClosedBezierShape">
      <g id="id22">
       <rect class="BoundingBox" stroke="none" fill="none" x="6953" y="1417" width="4197" height="2670"/>
       <path fill="rgb(231,173,39)" stroke="none" d="M 9051,2730 C 8143,2730 7371,2183 7078,1417 6997,1629 6954,1858 6954,2095 6954,3196 7894,4086 9051,4086 10209,4086 11149,3196 11149,2095 11149,1858 11106,1629 11024,1417 10732,2183 9959,2730 9051,2730 Z"/>
      </g>
     </g>
     <g class="com.sun.star.drawing.ClosedBezierShape">
      <g id="id23">
       <rect class="BoundingBox" stroke="none" fill="none" x="13696" y="12884" width="4205" height="3992"/>
       <path fill="rgb(239,90,157)" stroke="none" d="M 16277,12941 C 16653,13024 16952,13175 17234,13427 17516,13678 17694,13951 17806,14303 17918,14654 17929,14977 17841,15334 17753,15691 17593,15975 17329,16243 17064,16510 16776,16680 16406,16786 16036,16892 15696,16902 15319,16818 14943,16735 14644,16584 14362,16332 14080,16081 13901,15808 13790,15456 13678,15105 13667,14783 13755,14425 13843,14068 14003,13784 14267,13517 14532,13249 14820,13080 15190,12973 15560,12867 15900,12857 16277,12941 Z"/>
      </g>
     </g>
     <g class="com.sun.star.drawing.ClosedBezierShape">
      <g id="id24">
       <rect class="BoundingBox" stroke="none" fill="none" x="13698" y="14222" width="4197" height="2671"/>
       <path fill="rgb(228,61,145)" stroke="none" d="M 15796,15535 C 14888,15535 14116,14988 13823,14222 13741,14435 13698,14663 13698,14900 13698,16001 14639,16891 15796,16891 16954,16891 17894,16001 17894,14900 17894,14663 17851,14435 17769,14222 17476,14988 16704,15535 15796,15535 Z"/>
      </g>
     </g>
     <g class="com.sun.star.drawing.ClosedBezierShape">
      <g id="id25">
       <rect class="BoundingBox" stroke="none" fill="none" x="13692" y="102" width="4204" height="3991"/>
       <path fill="rgb(28,174,228)" stroke="none" d="M 17277,689 C 17550,948 17720,1228 17819,1581 17920,1936 17920,2257 17819,2612 17720,2965 17550,3245 17277,3505 17004,3764 16709,3925 16337,4019 15962,4115 15625,4115 15250,4019 14878,3925 14583,3764 14310,3505 14037,3245 13867,2965 13768,2612 13667,2257 13667,1936 13768,1581 13867,1228 14037,948 14310,689 14583,429 14878,268 15250,174 15625,78 15962,78 16337,174 16709,268 17004,429 17277,689 Z"/>
      </g>
     </g>
     <g class="com.sun.star.drawing.ClosedBezierShape">
      <g id="id26">
       <rect class="BoundingBox" stroke="none" fill="none" x="13698" y="1417" width="4197" height="2670"/>
       <path fill="rgb(0,154,221)" stroke="none" d="M 15796,2730 C 14888,2730 14116,2183 13823,1417 13741,1629 13698,1858 13698,2095 13698,3196 14639,4086 15796,4086 16954,4086 17894,3196 17894,2095 17894,1858 17851,1629 17769,1417 17476,2183 16704,2730 15796,2730 Z"/>
      </g>
     </g>
    </g>
   </g>
  </g>
 </g>
</svg>