<svg enable-background="new 0 0 60 60" height="512" viewBox="0 0 60 60" width="512" xmlns="http://www.w3.org/2000/svg"><path d="m30 52c-12.131 0-22-9.869-22-22s9.869-22 22-22c.552 0 1 .448 1 1s-.448 1-1 1c-11.028 0-20 8.972-20 20s8.972 20 20 20 20-8.972 20-20c0-.552.448-1 1-1s1 .448 1 1c0 12.131-9.869 22-22 22z" fill="#afb6bb"/><path d="m30 44c-7.72 0-14-6.28-14-14s6.28-14 14-14c.552 0 1 .448 1 1s-.448 1-1 1c-6.617 0-12 5.383-12 12s5.383 12 12 12 12-5.383 12-12c0-.552.448-1 1-1s1 .448 1 1c0 7.72-6.28 14-14 14z" fill="#839594"/><circle cx="30" cy="30" fill="#dd352e" r="5"/><path d="m30 31c-.256 0-.512-.098-.707-.293-.391-.391-.391-1.023 0-1.414l23-23c.391-.391 1.023-.391 1.414 0s.391 1.023 0 1.414l-23 23c-.195.195-.451.293-.707.293z" fill="#e7eced"/><path d="m48 12v-4.586c0-.265.105-.52.293-.707l4-4c.63-.63 1.707-.184 1.707.707v2.586z" fill="#ed8a19"/><path d="m48 12h4.586c.265 0 .52-.105.707-.293l4-4c.63-.63.184-1.707-.707-1.707h-2.586z" fill="#dc691d"/><path d="m30 60c-16.542 0-30-13.458-30-30s13.458-30 30-30c.552 0 1 .448 1 1s-.448 1-1 1c-15.439 0-28 12.561-28 28s12.561 28 28 28 28-12.561 28-28c0-.552.448-1 1-1s1 .448 1 1c0 16.542-13.458 30-30 30z" fill="#e7eced"/></svg>