<svg xmlns="http://www.w3.org/2000/svg" xmlns:ooo="http://xml.openoffice.org/svg/export" xmlns:xlink="http://www.w3.org/1999/xlink" xmlns:presentation="http://sun.com/xmlns/staroffice/presentation" xmlns:smil="http://www.w3.org/2001/SMIL20/" xmlns:anim="urn:oasis:names:tc:opendocument:xmlns:animation:1.0" version="1.2" width="18062" height="18062" preserveAspectRatio="xMidYMid" fill-rule="evenodd" stroke-width="28.222" stroke-linejoin="round" xml:space="preserve" style=""><rect id="backgroundrect" width="100%" height="100%" x="0" y="0" fill="none" stroke="none"/>
 <defs class="ClipPathGroup">
  <clipPath id="presentation_clip_path" clipPathUnits="userSpaceOnUse">
   <rect x="0" y="0" width="18062" height="18062" id="svg_1"/>
  </clipPath>
 </defs>
 <defs class="TextShapeIndex">
  <g ooo:slide="id1" ooo:id-list="id3 id4 id5 id6 id7 id8 id9 id10 id11 id12 id13 id14 id15 id16 id17 id18 id19 id20 id21 id22 id23 id24 id25 id26" id="svg_2"/>
 </defs>
 <defs class="EmbeddedBulletChars">
  <g id="bullet-char-template(57356)" transform="scale(0.00048828125,-0.00048828125) ">
   <path d="M 580,1141 L 1163,571 580,0 -4,571 580,1141 Z" id="svg_3"/>
  </g>
  <g id="bullet-char-template(57354)" transform="scale(0.00048828125,-0.00048828125) ">
   <path d="M 8,1128 L 1137,1128 1137,0 8,0 8,1128 Z" id="svg_4"/>
  </g>
  <g id="bullet-char-template(10146)" transform="scale(0.00048828125,-0.00048828125) ">
   <path d="M 174,0 L 602,739 174,1481 1456,739 174,0 Z M 1358,739 L 309,1346 659,739 1358,739 Z" id="svg_5"/>
  </g>
  <g id="bullet-char-template(10132)" transform="scale(0.00048828125,-0.00048828125) ">
   <path d="M 2015,739 L 1276,0 717,0 1260,543 174,543 174,936 1260,936 717,1481 1274,1481 2015,739 Z" id="svg_6"/>
  </g>
  <g id="bullet-char-template(10007)" transform="scale(0.00048828125,-0.00048828125) ">
   <path d="M 0,-2 C -7,14 -16,27 -25,37 L 356,567 C 262,823 215,952 215,954 215,979 228,992 255,992 264,992 276,990 289,987 310,991 331,999 354,1012 L 381,999 492,748 772,1049 836,1024 860,1049 C 881,1039 901,1025 922,1006 886,937 835,863 770,784 769,783 710,716 594,584 L 774,223 C 774,196 753,168 711,139 L 727,119 C 717,90 699,76 672,76 641,76 570,178 457,381 L 164,-76 C 142,-110 111,-127 72,-127 30,-127 9,-110 8,-76 1,-67 -2,-52 -2,-32 -2,-23 -1,-13 0,-2 Z" id="svg_7"/>
  </g>
  <g id="bullet-char-template(10004)" transform="scale(0.00048828125,-0.00048828125) ">
   <path d="M 285,-33 C 182,-33 111,30 74,156 52,228 41,333 41,471 41,549 55,616 82,672 116,743 169,778 240,778 293,778 328,747 346,684 L 369,508 C 377,444 397,411 428,410 L 1163,1116 C 1174,1127 1196,1133 1229,1133 1271,1133 1292,1118 1292,1087 L 1292,965 C 1292,929 1282,901 1262,881 L 442,47 C 390,-6 338,-33 285,-33 Z" id="svg_8"/>
  </g>
  <g id="bullet-char-template(9679)" transform="scale(0.00048828125,-0.00048828125) ">
   <path d="M 813,0 C 632,0 489,54 383,161 276,268 223,411 223,592 223,773 276,916 383,1023 489,1130 632,1184 813,1184 992,1184 1136,1130 1245,1023 1353,916 1407,772 1407,592 1407,412 1353,268 1245,161 1136,54 992,0 813,0 Z" id="svg_9"/>
  </g>
  <g id="bullet-char-template(8226)" transform="scale(0.00048828125,-0.00048828125) ">
   <path d="M 346,457 C 273,457 209,483 155,535 101,586 74,649 74,723 74,796 101,859 155,911 209,963 273,989 346,989 419,989 480,963 531,910 582,859 608,796 608,723 608,648 583,586 532,535 482,483 420,457 346,457 Z" id="svg_10"/>
  </g>
  <g id="bullet-char-template(8211)" transform="scale(0.00048828125,-0.00048828125) ">
   <path d="M -4,459 L 1135,459 1135,606 -4,606 -4,459 Z" id="svg_11"/>
  </g>
 </defs>
 <defs class="TextEmbeddedBitmaps"/>
 
 
<g class="currentLayer" style=""><title>Layer 1</title><g id="svg_12">
  <g id="id2" class="Master_Slide">
   <g id="bg-id2" class="Background"/>
   <g id="bo-id2" class="BackgroundObjects"/>
  </g>
 </g><g class="SlideGroup" id="svg_13">
  <g id="svg_14">
   <g id="id1" class="Slide" clip-path="url(#presentation_clip_path)">
    <g class="Page" id="svg_15">
     <g class="com.sun.star.drawing.ClosedBezierShape" id="svg_16">
      <g id="id3">
       <rect class="BoundingBox" stroke="none" fill="none" x="4476" y="4896" width="8222" height="8222" id="svg_17"/>
       <path fill="rgb(56,43,115)" stroke="none" d="M 12004,11209 L 12004,9939 C 12405,9818 12697,9446 12697,9006 12697,8566 12405,8194 12004,8073 L 12004,6804 C 12405,6683 12697,6311 12697,5871 12697,5332 12260,4896 11722,4896 11282,4896 10910,5188 10789,5588 L 9520,5588 C 9398,5188 9027,4896 8586,4896 8146,4896 7774,5188 7653,5588 L 6384,5588 C 6263,5188 5891,4896 5451,4896 4912,4896 4476,5332 4476,5871 4476,6311 4768,6683 5168,6804 L 5168,8073 C 4768,8194 4476,8566 4476,9006 4476,9447 4768,9818 5168,9940 L 5168,11209 C 4768,11330 4476,11702 4476,12142 4476,12680 4912,13117 5451,13117 5891,13117 6263,12825 6384,12424 L 7653,12424 C 7774,12825 8146,13117 8586,13117 9026,13117 9398,12825 9519,12424 L 10789,12424 C 10910,12825 11282,13117 11722,13117 12260,13117 12697,12680 12697,12142 12697,11702 12405,11330 12004,11209 Z M 10789,11860 L 9520,11860 C 9425,11549 9180,11303 8869,11209 L 8869,9939 C 9180,9845 9425,9600 9520,9289 L 10789,9289 C 10883,9600 11129,9845 11440,9939 L 11440,11209 C 11129,11303 10883,11549 10789,11860 Z M 5733,11209 L 5733,9939 C 6044,9845 6290,9600 6384,9289 L 7653,9289 C 7747,9600 7993,9845 8304,9940 L 8304,11209 C 7993,11303 7747,11549 7653,11860 L 6384,11860 C 6290,11549 6044,11303 5733,11209 Z M 6384,6153 L 7653,6153 C 7747,6464 7993,6710 8304,6804 L 8304,8073 C 7993,8167 7747,8413 7653,8724 L 6384,8724 C 6290,8413 6044,8167 5733,8073 L 5733,6804 C 6044,6710 6290,6464 6384,6153 Z M 11440,6804 L 11440,8073 C 11129,8167 10883,8413 10789,8724 L 9519,8724 C 9425,8413 9180,8167 8869,8073 L 8869,6804 C 9180,6710 9425,6464 9519,6153 L 10789,6153 C 10883,6464 11129,6710 11440,6804 Z" id="svg_18"/>
      </g>
     </g>
     <g class="com.sun.star.drawing.ClosedBezierShape" id="svg_19">
      <g id="id4">
       <rect class="BoundingBox" stroke="none" fill="none" x="5169" y="5095" width="6837" height="6837" id="svg_20"/>
       <path fill="rgb(255,255,255)" stroke="none" d="M 11723,11931 L 5451,11931 C 5295,11931 5169,11805 5169,11649 L 5169,5377 C 5169,5221 5295,5095 5451,5095 L 11723,5095 C 11879,5095 12005,5221 12005,5377 L 12005,11649 C 12005,11805 11879,11931 11723,11931 Z M 5734,11367 L 11441,11367 11441,5660 5734,5660 5734,11367 Z" id="svg_21"/>
      </g>
     </g>
     <g class="com.sun.star.drawing.PolyPolygonShape" id="svg_22">
      <g id="id5">
       <rect class="BoundingBox" stroke="none" fill="none" x="5451" y="5377" width="6273" height="6273" id="svg_23"/>
       <path fill="rgb(209,211,212)" stroke="none" d="M 5451,11649 L 11723,11649 11723,5377 5451,5377 5451,11649 Z M 5733,5659 L 11440,5659 11440,11366 5733,11366 5733,5659 Z" id="svg_24"/>
      </g>
     </g>
     <g class="com.sun.star.drawing.ClosedBezierShape" id="svg_25">
      <g id="id6">
       <rect class="BoundingBox" stroke="none" fill="none" x="8304" y="5095" width="566" height="6837" id="svg_26"/>
       <path fill="rgb(255,255,255)" stroke="none" d="M 8587,11931 C 8431,11931 8304,11805 8304,11649 L 8304,5377 C 8304,5221 8431,5095 8587,5095 8743,5095 8869,5221 8869,5377 L 8869,11649 C 8869,11805 8743,11931 8587,11931 Z" id="svg_27"/>
      </g>
     </g>
     <g class="com.sun.star.drawing.ClosedBezierShape" id="svg_28">
      <g id="id7">
       <rect class="BoundingBox" stroke="none" fill="none" x="5169" y="8230" width="6837" height="566" id="svg_29"/>
       <path fill="rgb(255,255,255)" stroke="none" d="M 11723,8795 L 5451,8795 C 5295,8795 5169,8669 5169,8513 5169,8357 5295,8230 5451,8230 L 11723,8230 C 11879,8230 12005,8357 12005,8513 12005,8669 11879,8795 11723,8795 Z" id="svg_30"/>
      </g>
     </g>
     <g class="com.sun.star.drawing.ClosedBezierShape" id="svg_31">
      <g id="id8">
       <rect class="BoundingBox" stroke="none" fill="none" x="5169" y="8371" width="6837" height="425" id="svg_32"/>
       <path fill="rgb(209,211,212)" stroke="none" d="M 11723,8512 L 5451,8512 C 5347,8512 5256,8456 5207,8371 5183,8413 5169,8461 5169,8512 5169,8669 5295,8795 5451,8795 L 11723,8795 C 11879,8795 12005,8669 12005,8512 12005,8461 11991,8413 11967,8371 11919,8456 11827,8512 11723,8512 Z" id="svg_33"/>
      </g>
     </g>
     <g class="com.sun.star.drawing.ClosedBezierShape" id="svg_34">
      <g id="id9">
       <rect class="BoundingBox" stroke="none" fill="none" x="4476" y="7538" width="1951" height="1951" id="svg_35"/>
       <path fill="rgb(254,222,58)" stroke="none" d="M 6426,8513 C 6426,8693 6385,8845 6295,9001 6206,9156 6094,9268 5939,9357 5783,9447 5631,9488 5451,9488 5272,9488 5119,9447 4964,9357 4808,9268 4696,9156 4607,9001 4517,8845 4476,8693 4476,8513 4476,8334 4517,8181 4607,8026 4696,7870 4808,7758 4964,7669 5119,7579 5272,7538 5451,7538 5631,7538 5783,7579 5939,7669 6094,7758 6206,7870 6295,8026 6385,8181 6426,8334 6426,8513 Z" id="svg_36"/>
      </g>
     </g>
     <g class="com.sun.star.drawing.ClosedBezierShape" id="svg_37">
      <g id="id10">
       <rect class="BoundingBox" stroke="none" fill="none" x="4476" y="8180" width="1951" height="1308" id="svg_38"/>
       <path fill="rgb(231,173,39)" stroke="none" d="M 5451,8823 C 5029,8823 4670,8555 4534,8180 4496,8284 4476,8396 4476,8512 4476,9051 4913,9487 5451,9487 5989,9487 6426,9051 6426,8512 6426,8396 6406,8284 6368,8180 6232,8555 5873,8823 5451,8823 Z" id="svg_39"/>
      </g>
     </g>
     <g class="com.sun.star.drawing.ClosedBezierShape" id="svg_40">
      <g id="id11">
       <rect class="BoundingBox" stroke="none" fill="none" x="7612" y="7538" width="1951" height="1951" id="svg_41"/>
       <path fill="rgb(254,222,58)" stroke="none" d="M 9562,8513 C 9562,8693 9521,8845 9431,9001 9342,9156 9230,9268 9075,9357 8919,9447 8767,9488 8587,9488 8408,9488 8255,9447 8100,9357 7944,9268 7832,9156 7743,9001 7653,8845 7612,8693 7612,8513 7612,8334 7653,8181 7743,8026 7832,7870 7944,7758 8100,7669 8255,7579 8408,7538 8587,7538 8767,7538 8919,7579 9075,7669 9230,7758 9342,7870 9431,8026 9521,8181 9562,8334 9562,8513 Z" id="svg_42"/>
      </g>
     </g>
     <g class="com.sun.star.drawing.ClosedBezierShape" id="svg_43">
      <g id="id12">
       <rect class="BoundingBox" stroke="none" fill="none" x="7612" y="8180" width="1951" height="1308" id="svg_44"/>
       <path fill="rgb(231,173,39)" stroke="none" d="M 8587,8823 C 8165,8823 7806,8555 7670,8180 7632,8284 7612,8396 7612,8512 7612,9051 8049,9487 8587,9487 9125,9487 9562,9051 9562,8512 9562,8396 9542,8284 9504,8180 9368,8555 9009,8823 8587,8823 Z" id="svg_45"/>
      </g>
     </g>
     <g class="com.sun.star.drawing.ClosedBezierShape" id="svg_46">
      <g id="id13">
       <rect class="BoundingBox" stroke="none" fill="none" x="10747" y="7538" width="1951" height="1951" id="svg_47"/>
       <path fill="rgb(254,222,58)" stroke="none" d="M 12697,8513 C 12697,8693 12656,8845 12566,9001 12477,9156 12365,9268 12210,9357 12054,9447 11902,9488 11722,9488 11543,9488 11390,9447 11235,9357 11079,9268 10967,9156 10878,9001 10788,8845 10747,8693 10747,8513 10747,8334 10788,8181 10878,8026 10967,7870 11079,7758 11235,7669 11390,7579 11543,7538 11722,7538 11902,7538 12054,7579 12210,7669 12365,7758 12477,7870 12566,8026 12656,8181 12697,8334 12697,8513 Z" id="svg_48"/>
      </g>
     </g>
     <g class="com.sun.star.drawing.ClosedBezierShape" id="svg_49">
      <g id="id14">
       <rect class="BoundingBox" stroke="none" fill="none" x="10747" y="8180" width="1951" height="1308" id="svg_50"/>
       <path fill="rgb(231,173,39)" stroke="none" d="M 11722,8823 C 11300,8823 10941,8555 10805,8180 10767,8284 10747,8396 10747,8512 10747,9051 11184,9487 11722,9487 12260,9487 12697,9051 12697,8512 12697,8396 12677,8284 12639,8180 12503,8555 12144,8823 11722,8823 Z" id="svg_51"/>
      </g>
     </g>
     <g class="com.sun.star.drawing.ClosedBezierShape" id="svg_52">
      <g id="id15">
       <rect class="BoundingBox" stroke="none" fill="none" x="4473" y="10671" width="1955" height="1955" id="svg_53"/>
       <path fill="rgb(28,174,228)" stroke="none" d="M 6139,10958 C 6266,11085 6345,11222 6391,11395 6438,11569 6438,11726 6391,11900 6345,12073 6266,12210 6139,12337 6012,12464 5875,12543 5702,12589 5528,12636 5371,12636 5197,12589 5024,12543 4887,12464 4760,12337 4633,12210 4554,12073 4508,11900 4461,11726 4461,11569 4508,11395 4554,11222 4633,11085 4760,10958 4887,10831 5024,10752 5197,10706 5371,10659 5528,10659 5702,10706 5875,10752 6012,10831 6139,10958 Z" id="svg_54"/>
      </g>
     </g>
     <g class="com.sun.star.drawing.ClosedBezierShape" id="svg_55">
      <g id="id16">
       <rect class="BoundingBox" stroke="none" fill="none" x="4476" y="11315" width="1951" height="1309" id="svg_56"/>
       <path fill="rgb(0,154,221)" stroke="none" d="M 5451,11959 C 5029,11959 4670,11691 4534,11316 4496,11420 4476,11532 4476,11648 4476,12187 4913,12623 5451,12623 5989,12623 6426,12187 6426,11648 6426,11532 6406,11420 6368,11316 6232,11691 5873,11959 5451,11959 Z" id="svg_57"/>
      </g>
     </g>
     <g class="com.sun.star.drawing.ClosedBezierShape" id="svg_58">
      <g id="id17">
       <rect class="BoundingBox" stroke="none" fill="none" x="4475" y="4400" width="1954" height="1954" id="svg_59"/>
       <path fill="rgb(239,90,157)" stroke="none" d="M 5677,4428 C 5851,4469 5990,4544 6121,4667 6251,4791 6334,4925 6385,5097 6437,5269 6441,5427 6400,5602 6358,5776 6283,5915 6160,6046 6037,6176 5903,6259 5731,6310 5559,6362 5401,6366 5226,6325 5051,6283 4912,6208 4782,6085 4651,5962 4568,5828 4517,5656 4466,5484 4461,5326 4503,5151 4544,4976 4619,4837 4742,4707 4866,4576 5000,4493 5172,4442 5344,4391 5502,4386 5677,4428 Z" id="svg_60"/>
      </g>
     </g>
     <g class="com.sun.star.drawing.ClosedBezierShape" id="svg_61">
      <g id="id18">
       <rect class="BoundingBox" stroke="none" fill="none" x="4476" y="5045" width="1951" height="1308" id="svg_62"/>
       <path fill="rgb(228,61,145)" stroke="none" d="M 5451,5688 C 5029,5688 4670,5420 4534,5045 4496,5149 4476,5261 4476,5377 4476,5916 4913,6352 5451,6352 5989,6352 6426,5916 6426,5377 6426,5261 6406,5149 6368,5045 6232,5420 5873,5688 5451,5688 Z" id="svg_63"/>
      </g>
     </g>
     <g class="com.sun.star.drawing.ClosedBezierShape" id="svg_64">
      <g id="id19">
       <rect class="BoundingBox" stroke="none" fill="none" x="7613" y="10670" width="1956" height="1956" id="svg_65"/>
       <path fill="rgb(254,222,58)" stroke="none" d="M 9515,11337 C 9572,11507 9582,11664 9547,11840 9511,12016 9441,12158 9322,12293 9203,12427 9072,12515 8902,12572 8732,12629 8574,12639 8398,12604 8222,12568 8080,12498 7946,12379 7811,12260 7724,12129 7666,11959 7609,11789 7599,11631 7635,11455 7670,11279 7740,11137 7859,11003 7978,10868 8109,10781 8280,10723 8450,10666 8607,10656 8783,10692 8959,10727 9101,10797 9236,10916 9370,11035 9458,11166 9515,11337 Z" id="svg_66"/>
      </g>
     </g>
     <g class="com.sun.star.drawing.ClosedBezierShape" id="svg_67">
      <g id="id20">
       <rect class="BoundingBox" stroke="none" fill="none" x="7612" y="11315" width="1951" height="1309" id="svg_68"/>
       <path fill="rgb(231,173,39)" stroke="none" d="M 8587,11959 C 8165,11959 7806,11691 7670,11316 7632,11420 7612,11532 7612,11648 7612,12187 8049,12623 8587,12623 9125,12623 9562,12187 9562,11648 9562,11532 9542,11420 9504,11316 9368,11691 9009,11959 8587,11959 Z" id="svg_69"/>
      </g>
     </g>
     <g class="com.sun.star.drawing.ClosedBezierShape" id="svg_70">
      <g id="id21">
       <rect class="BoundingBox" stroke="none" fill="none" x="7610" y="4406" width="1954" height="1953" id="svg_71"/>
       <path fill="rgb(254,222,58)" stroke="none" d="M 8729,4417 C 8906,4443 9051,4506 9192,4618 9333,4729 9427,4856 9493,5023 9559,5190 9577,5346 9551,5524 9525,5701 9462,5846 9350,5987 9239,6128 9112,6222 8945,6288 8779,6354 8622,6372 8444,6346 8267,6320 8122,6257 7981,6145 7841,6034 7746,5907 7680,5740 7614,5574 7596,5417 7622,5239 7648,5062 7711,4917 7823,4776 7934,4636 8061,4541 8228,4475 8395,4409 8551,4391 8729,4417 Z" id="svg_72"/>
      </g>
     </g>
     <g class="com.sun.star.drawing.ClosedBezierShape" id="svg_73">
      <g id="id22">
       <rect class="BoundingBox" stroke="none" fill="none" x="7612" y="5045" width="1951" height="1308" id="svg_74"/>
       <path fill="rgb(231,173,39)" stroke="none" d="M 8587,5688 C 8165,5688 7806,5420 7670,5045 7632,5149 7612,5261 7612,5377 7612,5916 8049,6352 8587,6352 9125,6352 9562,5916 9562,5377 9562,5261 9542,5149 9504,5045 9368,5420 9009,5688 8587,5688 Z" id="svg_75"/>
      </g>
     </g>
     <g class="com.sun.star.drawing.ClosedBezierShape" id="svg_76">
      <g id="id23">
       <rect class="BoundingBox" stroke="none" fill="none" x="10746" y="10661" width="1955" height="1955" id="svg_77"/>
       <path fill="rgb(239,90,157)" stroke="none" d="M 11945,10688 C 12120,10729 12259,10803 12390,10926 12521,11049 12604,11183 12656,11355 12708,11527 12713,11685 12672,11860 12631,12035 12557,12174 12434,12305 12311,12436 12177,12519 12005,12571 11833,12623 11675,12628 11500,12587 11325,12546 11186,12472 11055,12349 10924,12226 10841,12092 10789,11920 10737,11748 10732,11590 10773,11415 10814,11240 10888,11101 11011,10970 11134,10839 11268,10756 11440,10704 11612,10652 11770,10647 11945,10688 Z" id="svg_78"/>
      </g>
     </g>
     <g class="com.sun.star.drawing.ClosedBezierShape" id="svg_79">
      <g id="id24">
       <rect class="BoundingBox" stroke="none" fill="none" x="10747" y="11315" width="1951" height="1309" id="svg_80"/>
       <path fill="rgb(228,61,145)" stroke="none" d="M 11722,11959 C 11300,11959 10941,11691 10805,11316 10767,11420 10747,11532 10747,11648 10747,12187 11184,12623 11722,12623 12260,12623 12697,12187 12697,11648 12697,11532 12677,11420 12639,11316 12503,11691 12144,11959 11722,11959 Z" id="svg_81"/>
      </g>
     </g>
     <g class="com.sun.star.drawing.ClosedBezierShape" id="svg_82">
      <g id="id25">
       <rect class="BoundingBox" stroke="none" fill="none" x="10743" y="4401" width="1956" height="1955" id="svg_83"/>
       <path fill="rgb(28,174,228)" stroke="none" d="M 12410,4688 C 12537,4815 12616,4952 12662,5125 12709,5299 12709,5456 12662,5630 12616,5803 12537,5940 12410,6067 12283,6194 12146,6273 11973,6319 11799,6366 11642,6366 11468,6319 11295,6273 11158,6194 11031,6067 10904,5940 10825,5803 10779,5630 10732,5456 10732,5299 10779,5125 10825,4952 10904,4815 11031,4688 11158,4561 11295,4482 11468,4436 11642,4389 11799,4389 11973,4436 12146,4482 12283,4561 12410,4688 Z" id="svg_84"/>
      </g>
     </g>
     <g class="com.sun.star.drawing.ClosedBezierShape" id="svg_85">
      <g id="id26">
       <rect class="BoundingBox" stroke="none" fill="none" x="10747" y="5045" width="1951" height="1308" id="svg_86"/>
       <path fill="rgb(0,154,221)" stroke="none" d="M 11722,5688 C 11300,5688 10941,5420 10805,5045 10767,5149 10747,5261 10747,5377 10747,5916 11184,6352 11722,6352 12260,6352 12697,5916 12697,5377 12697,5261 12677,5149 12639,5045 12503,5420 12144,5688 11722,5688 Z" id="svg_87"/>
      </g>
     </g>
    </g>
   </g>
  </g>
 </g></g></svg>